<svg width="250" height="33" viewBox="0 0 250 33" fill="none" xmlns="http://www.w3.org/2000/svg">
<path d="M25.192 3.6L15.496 26H10.376L0.712 3.6H6.312L13.128 19.6L20.04 3.6H25.192ZM32.373 8.528C35.0397 8.528 37.0877 9.168 38.517 10.448C39.9463 11.7067 40.661 13.616 40.661 16.176V26H35.989V23.856C35.0503 25.456 33.301 26.256 30.741 26.256C29.4183 26.256 28.2663 26.032 27.285 25.584C26.325 25.136 25.589 24.5173 25.077 23.728C24.565 22.9387 24.309 22.0427 24.309 21.04C24.309 19.44 24.9063 18.1813 26.101 17.264C27.317 16.3467 29.1837 15.888 31.701 15.888H35.669C35.669 14.8 35.3383 13.968 34.677 13.392C34.0157 12.7947 33.0237 12.496 31.701 12.496C30.7837 12.496 29.877 12.6453 28.981 12.944C28.1063 13.2213 27.3597 13.6053 26.741 14.096L24.949 10.608C25.8877 9.94667 27.0077 9.43467 28.309 9.072C29.6317 8.70933 30.9863 8.528 32.373 8.528ZM31.989 22.896C32.8423 22.896 33.5997 22.704 34.261 22.32C34.9223 21.9147 35.3917 21.328 35.669 20.56V18.8H32.245C30.197 18.8 29.173 19.472 29.173 20.816C29.173 21.456 29.4183 21.968 29.909 22.352C30.421 22.7147 31.1143 22.896 31.989 22.896ZM53.6865 26.256C51.8518 26.256 50.1985 25.8827 48.7265 25.136C47.2758 24.368 46.1345 23.312 45.3025 21.968C44.4918 20.624 44.0865 19.0987 44.0865 17.392C44.0865 15.6853 44.4918 14.16 45.3025 12.816C46.1345 11.472 47.2758 10.4267 48.7265 9.68C50.1985 8.912 51.8518 8.528 53.6865 8.528C55.4998 8.528 57.0785 8.912 58.4225 9.68C59.7878 10.4267 60.7798 11.504 61.3985 12.912L57.5265 14.992C56.6305 13.4133 55.3398 12.624 53.6545 12.624C52.3532 12.624 51.2758 13.0507 50.4225 13.904C49.5692 14.7573 49.1425 15.92 49.1425 17.392C49.1425 18.864 49.5692 20.0267 50.4225 20.88C51.2758 21.7333 52.3532 22.16 53.6545 22.16C55.3612 22.16 56.6518 21.3707 57.5265 19.792L61.3985 21.904C60.7798 23.2693 59.7878 24.336 58.4225 25.104C57.0785 25.872 55.4998 26.256 53.6865 26.256ZM72.374 26.256C70.5393 26.256 68.886 25.8827 67.414 25.136C65.9633 24.368 64.822 23.312 63.99 21.968C63.1793 20.624 62.774 19.0987 62.774 17.392C62.774 15.6853 63.1793 14.16 63.99 12.816C64.822 11.472 65.9633 10.4267 67.414 9.68C68.886 8.912 70.5393 8.528 72.374 8.528C74.1873 8.528 75.766 8.912 77.11 9.68C78.4753 10.4267 79.4673 11.504 80.086 12.912L76.214 14.992C75.318 13.4133 74.0273 12.624 72.342 12.624C71.0407 12.624 69.9633 13.0507 69.11 13.904C68.2567 14.7573 67.83 15.92 67.83 17.392C67.83 18.864 68.2567 20.0267 69.11 20.88C69.9633 21.7333 71.0407 22.16 72.342 22.16C74.0487 22.16 75.3393 21.3707 76.214 19.792L80.086 21.904C79.4673 23.2693 78.4753 24.336 77.11 25.104C75.766 25.872 74.1873 26.256 72.374 26.256ZM82.9603 8.784H87.9523V26H82.9603V8.784ZM85.4563 6.384C84.5389 6.384 83.7923 6.11733 83.2163 5.584C82.6403 5.05067 82.3523 4.38933 82.3523 3.6C82.3523 2.81067 82.6403 2.14933 83.2163 1.616C83.7923 1.08267 84.5389 0.815998 85.4563 0.815998C86.3736 0.815998 87.1203 1.072 87.6963 1.584C88.2723 2.096 88.5603 2.736 88.5603 3.504C88.5603 4.336 88.2723 5.02933 87.6963 5.584C87.1203 6.11733 86.3736 6.384 85.4563 6.384ZM103.049 8.528C105.183 8.528 106.9 9.168 108.201 10.448C109.524 11.728 110.185 13.6267 110.185 16.144V26H105.193V16.912C105.193 15.5467 104.895 14.5333 104.297 13.872C103.7 13.1893 102.836 12.848 101.705 12.848C100.447 12.848 99.4439 13.2427 98.6973 14.032C97.9506 14.8 97.5773 15.952 97.5773 17.488V26H92.5853V8.784H97.3533V10.8C98.0146 10.0747 98.8359 9.52 99.8173 9.136C100.799 8.73067 101.876 8.528 103.049 8.528ZM121.654 8.528C124.321 8.528 126.369 9.168 127.798 10.448C129.228 11.7067 129.942 13.616 129.942 16.176V26H125.27V23.856C124.332 25.456 122.582 26.256 120.022 26.256C118.7 26.256 117.548 26.032 116.566 25.584C115.606 25.136 114.87 24.5173 114.358 23.728C113.846 22.9387 113.59 22.0427 113.59 21.04C113.59 19.44 114.188 18.1813 115.382 17.264C116.598 16.3467 118.465 15.888 120.982 15.888H124.95C124.95 14.8 124.62 13.968 123.958 13.392C123.297 12.7947 122.305 12.496 120.982 12.496C120.065 12.496 119.158 12.6453 118.262 12.944C117.388 13.2213 116.641 13.6053 116.022 14.096L114.23 10.608C115.169 9.94667 116.289 9.43467 117.59 9.072C118.913 8.70933 120.268 8.528 121.654 8.528ZM121.27 22.896C122.124 22.896 122.881 22.704 123.542 22.32C124.204 21.9147 124.673 21.328 124.95 20.56V18.8H121.526C119.478 18.8 118.454 19.472 118.454 20.816C118.454 21.456 118.7 21.968 119.19 22.352C119.702 22.7147 120.396 22.896 121.27 22.896ZM145.564 25.168C145.074 25.5307 144.466 25.808 143.74 26C143.036 26.1707 142.29 26.256 141.5 26.256C139.452 26.256 137.863 25.7333 136.732 24.688C135.623 23.6427 135.068 22.1067 135.068 20.08V13.008H132.412V9.168H135.068V4.976H140.06V9.168H144.348V13.008H140.06V20.016C140.06 20.7413 140.242 21.3067 140.604 21.712C140.988 22.096 141.522 22.288 142.204 22.288C142.994 22.288 143.666 22.0747 144.22 21.648L145.564 25.168ZM148.367 8.784H153.359V26H148.367V8.784ZM150.863 6.384C149.945 6.384 149.199 6.11733 148.623 5.584C148.047 5.05067 147.759 4.38933 147.759 3.6C147.759 2.81067 148.047 2.14933 148.623 1.616C149.199 1.08267 149.945 0.815998 150.863 0.815998C151.78 0.815998 152.527 1.072 153.103 1.584C153.679 2.096 153.967 2.736 153.967 3.504C153.967 4.336 153.679 5.02933 153.103 5.584C152.527 6.11733 151.78 6.384 150.863 6.384ZM166.184 26.256C164.37 26.256 162.738 25.8827 161.288 25.136C159.858 24.368 158.738 23.312 157.928 21.968C157.117 20.624 156.712 19.0987 156.712 17.392C156.712 15.6853 157.117 14.16 157.928 12.816C158.738 11.472 159.858 10.4267 161.288 9.68C162.738 8.912 164.37 8.528 166.184 8.528C167.997 8.528 169.618 8.912 171.048 9.68C172.477 10.4267 173.597 11.472 174.408 12.816C175.218 14.16 175.624 15.6853 175.624 17.392C175.624 19.0987 175.218 20.624 174.408 21.968C173.597 23.312 172.477 24.368 171.048 25.136C169.618 25.8827 167.997 26.256 166.184 26.256ZM166.184 22.16C167.464 22.16 168.509 21.7333 169.32 20.88C170.152 20.0053 170.568 18.8427 170.568 17.392C170.568 15.9413 170.152 14.7893 169.32 13.936C168.509 13.0613 167.464 12.624 166.184 12.624C164.904 12.624 163.848 13.0613 163.016 13.936C162.184 14.7893 161.768 15.9413 161.768 17.392C161.768 18.8427 162.184 20.0053 163.016 20.88C163.848 21.7333 164.904 22.16 166.184 22.16ZM189.424 8.528C191.558 8.528 193.275 9.168 194.576 10.448C195.899 11.728 196.56 13.6267 196.56 16.144V26H191.568V16.912C191.568 15.5467 191.27 14.5333 190.672 13.872C190.075 13.1893 189.211 12.848 188.08 12.848C186.822 12.848 185.819 13.2427 185.072 14.032C184.326 14.8 183.952 15.952 183.952 17.488V26H178.96V8.784H183.728V10.8C184.39 10.0747 185.211 9.52 186.192 9.136C187.174 8.73067 188.251 8.528 189.424 8.528ZM202.973 26.256C202.099 26.256 201.363 25.9573 200.765 25.36C200.168 24.7627 199.869 24.016 199.869 23.12C199.869 22.2027 200.168 21.4667 200.765 20.912C201.363 20.336 202.099 20.048 202.973 20.048C203.848 20.048 204.584 20.336 205.181 20.912C205.779 21.4667 206.077 22.2027 206.077 23.12C206.077 24.016 205.779 24.7627 205.181 25.36C204.584 25.9573 203.848 26.256 202.973 26.256ZM219.924 8.528C222.058 8.528 223.775 9.168 225.076 10.448C226.399 11.728 227.06 13.6267 227.06 16.144V26H222.068V16.912C222.068 15.5467 221.77 14.5333 221.172 13.872C220.575 13.1893 219.711 12.848 218.58 12.848C217.322 12.848 216.319 13.2427 215.572 14.032C214.826 14.8 214.452 15.952 214.452 17.488V26H209.46V8.784H214.228V10.8C214.89 10.0747 215.711 9.52 216.692 9.136C217.674 8.73067 218.751 8.528 219.924 8.528ZM249.533 8.784V23.12C249.533 26.2773 248.711 28.624 247.069 30.16C245.426 31.696 243.026 32.464 239.869 32.464C238.205 32.464 236.626 32.2613 235.133 31.856C233.639 31.4507 232.402 30.864 231.421 30.096L233.405 26.512C234.13 27.1093 235.047 27.5787 236.157 27.92C237.266 28.2827 238.375 28.464 239.485 28.464C241.213 28.464 242.482 28.0693 243.293 27.28C244.125 26.512 244.541 25.3387 244.541 23.76V23.024C243.239 24.4533 241.426 25.168 239.101 25.168C237.522 25.168 236.071 24.8267 234.749 24.144C233.447 23.44 232.413 22.4587 231.645 21.2C230.877 19.9413 230.493 18.4907 230.493 16.848C230.493 15.2053 230.877 13.7547 231.645 12.496C232.413 11.2373 233.447 10.2667 234.749 9.584C236.071 8.88 237.522 8.528 239.101 8.528C241.597 8.528 243.495 9.34933 244.797 10.992V8.784H249.533ZM240.093 21.072C241.415 21.072 242.493 20.688 243.325 19.92C244.178 19.1307 244.605 18.1067 244.605 16.848C244.605 15.5893 244.178 14.576 243.325 13.808C242.493 13.0187 241.415 12.624 240.093 12.624C238.77 12.624 237.682 13.0187 236.829 13.808C235.975 14.576 235.549 15.5893 235.549 16.848C235.549 18.1067 235.975 19.1307 236.829 19.92C237.682 20.688 238.77 21.072 240.093 21.072Z" fill="white"/>
</svg>
